<svg width="24" height="24" viewBox="0 0 24 24" fill="none" xmlns="http://www.w3.org/2000/svg">
<path d="M16 15C15.014 15 14.027 14.786 13.985 14.776C13.604 14.693 13.307 14.395 13.223 14.014C13.214 13.972 12.999 12.985 12.999 11.999C12.999 11.013 13.213 10.026 13.223 9.98405C13.306 9.60305 13.604 9.30605 13.985 9.22205C14.027 9.21305 15.014 8.99805 16 8.99805C16.986 8.99805 17.973 9.21205 18.015 9.22205C18.396 9.30505 18.693 9.60305 18.777 9.98405C18.786 10.026 19.001 11.013 19.001 11.999C19.001 12.985 18.787 13.972 18.777 14.014C18.694 14.395 18.396 14.692 18.015 14.776C17.973 14.785 16.986 15 16 15ZM16 23C15.014 23 14.027 22.786 13.985 22.776C13.604 22.693 13.307 22.395 13.223 22.014C13.214 21.972 12.999 20.985 12.999 19.999C12.999 19.013 13.213 18.026 13.223 17.984C13.306 17.603 13.604 17.306 13.985 17.222C14.027 17.213 15.014 16.998 16 16.998C16.986 16.998 17.973 17.212 18.015 17.222C18.396 17.305 18.693 17.603 18.777 17.984C18.786 18.026 19.001 19.013 19.001 19.999C19.001 20.985 18.787 21.972 18.777 22.014C18.694 22.395 18.396 22.692 18.015 22.776C17.973 22.785 16.986 23 16 23ZM16 7.00005C15.014 7.00005 14.027 6.78605 13.985 6.77605C13.604 6.69305 13.307 6.39505 13.223 6.01405C13.214 5.97205 12.999 4.98505 12.999 3.99905C12.999 3.01305 13.213 2.02605 13.223 1.98405C13.306 1.60305 13.604 1.30605 13.985 1.22205C14.027 1.21305 15.014 0.998047 16 0.998047C16.986 0.998047 17.973 1.21205 18.015 1.22205C18.396 1.30505 18.693 1.60305 18.777 1.98405C18.786 2.02605 19.001 3.01305 19.001 3.99905C19.001 4.98505 18.787 5.97205 18.777 6.01405C18.694 6.39505 18.396 6.69205 18.015 6.77605C17.973 6.78505 16.986 7.00005 16 7.00005ZM8.00002 15C7.01402 15 6.02702 14.786 5.98502 14.776C5.60402 14.693 5.30702 14.395 5.22302 14.014C5.21402 13.972 4.99902 12.985 4.99902 11.999C4.99902 11.013 5.21302 10.026 5.22302 9.98405C5.30602 9.60305 5.60402 9.30605 5.98502 9.22205C6.02702 9.21305 7.01402 8.99805 8.00002 8.99805C8.98602 8.99805 9.97302 9.21205 10.015 9.22205C10.396 9.30505 10.693 9.60305 10.777 9.98405C10.786 10.026 11.001 11.013 11.001 11.999C11.001 12.985 10.787 13.972 10.777 14.014C10.694 14.395 10.396 14.692 10.015 14.776C9.97302 14.785 8.98602 15 8.00002 15ZM8.00002 23C7.01402 23 6.02702 22.786 5.98502 22.776C5.60402 22.693 5.30702 22.395 5.22302 22.014C5.21402 21.972 4.99902 20.985 4.99902 19.999C4.99902 19.013 5.21302 18.026 5.22302 17.984C5.30602 17.603 5.60402 17.306 5.98502 17.222C6.02702 17.213 7.01402 16.998 8.00002 16.998C8.98602 16.998 9.97302 17.212 10.015 17.222C10.396 17.305 10.693 17.603 10.777 17.984C10.786 18.026 11.001 19.013 11.001 19.999C11.001 20.985 10.787 21.972 10.777 22.014C10.694 22.395 10.396 22.692 10.015 22.776C9.97302 22.785 8.98602 23 8.00002 23ZM8.00002 7.00005C7.01402 7.00005 6.02702 6.78605 5.98502 6.77605C5.60402 6.69305 5.30702 6.39505 5.22302 6.01405C5.21402 5.97205 4.99902 4.98505 4.99902 3.99905C4.99902 3.01305 5.21302 2.02605 5.22302 1.98405C5.30602 1.60305 5.60402 1.30605 5.98502 1.22205C6.02702 1.21305 7.01402 0.998047 8.00002 0.998047C8.98602 0.998047 9.97302 1.21205 10.015 1.22205C10.396 1.30505 10.693 1.60305 10.777 1.98405C10.786 2.02605 11.001 3.01305 11.001 3.99905C11.001 4.98505 10.787 5.97205 10.777 6.01405C10.694 6.39505 10.396 6.69205 10.015 6.77605C9.97302 6.78505 8.98602 7.00005 8.00002 7.00005Z" fill="#7A7A7A"/>
</svg>
