<svg width="113" height="113" viewBox="0 0 113 113" fill="none" xmlns="http://www.w3.org/2000/svg">
<g clip-path="url(#clip0_82_19)">
<path d="M56.5 113C45.3254 113 34.4017 109.686 25.1103 103.478C15.8189 97.2697 8.57718 88.4457 4.30083 78.1216C0.0244807 67.7976 -1.09441 56.4373 1.08566 45.4774C3.26572 34.5175 8.64682 24.4502 16.5485 16.5485C24.4502 8.64682 34.5175 3.26572 45.4774 1.08566C56.4373 -1.09441 67.7976 0.0244807 78.1216 4.30083C88.4457 8.57718 97.2697 15.8189 103.478 25.1103C109.686 34.4017 113 45.3254 113 56.5C112.984 71.4798 107.026 85.8414 96.4337 96.4337C85.8414 107.026 71.4798 112.984 56.5 113ZM56.5 9.41669C47.1878 9.41669 38.0847 12.1781 30.3419 17.3517C22.5991 22.5252 16.5643 29.8787 13.0007 38.482C9.43707 47.0854 8.50466 56.5523 10.3214 65.6855C12.1381 74.8188 16.6224 83.2082 23.2071 89.793C29.7918 96.3777 38.1813 100.862 47.3145 102.679C56.4478 104.495 65.9147 103.563 74.518 99.9994C83.1214 96.4357 90.4748 90.4009 95.6484 82.6581C100.822 74.9153 103.583 65.8122 103.583 56.5C103.57 44.017 98.6047 32.0491 89.7778 23.2222C80.951 14.3954 68.9831 9.4304 56.5 9.41669Z" fill="#A6A6A6"/>
<path d="M65.9166 89.4584H56.4999V56.5H47.0833V47.0834H56.4999C58.9974 47.0834 61.3925 48.0755 63.1585 49.8415C64.9245 51.6074 65.9166 54.0026 65.9166 56.5V89.4584Z" fill="#A6A6A6"/>
<path d="M56.5 37.6666C60.4005 37.6666 63.5625 34.5046 63.5625 30.6041C63.5625 26.7036 60.4005 23.5416 56.5 23.5416C52.5995 23.5416 49.4375 26.7036 49.4375 30.6041C49.4375 34.5046 52.5995 37.6666 56.5 37.6666Z" fill="#A6A6A6"/>
</g>
<defs>
<clipPath id="clip0_82_19">
<rect width="113" height="113" fill="white"/>
</clipPath>
</defs>
</svg>
