<svg xmlns="http://www.w3.org/2000/svg" xmlns:xlink="http://www.w3.org/1999/xlink" width="750" zoomAndPan="magnify" viewBox="0 0 562.5 562.499982" height="750" preserveAspectRatio="xMidYMid meet" version="1.2"><defs><clipPath id="1bffeeb1f3"><path d="M 0 0 L 562 0 L 562 562 L 0 562 Z M 0 0 "/></clipPath><clipPath id="d85f5d3fac"><path d="M 74.933594 0 L 487.066406 0 C 506.941406 0 526 7.894531 540.054688 21.949219 C 554.105469 36 562 55.058594 562 74.933594 L 562 487.066406 C 562 506.941406 554.105469 526 540.054688 540.054688 C 526 554.105469 506.941406 562 487.066406 562 L 74.933594 562 C 55.058594 562 36 554.105469 21.949219 540.054688 C 7.894531 526 0 506.941406 0 487.066406 L 0 74.933594 C 0 55.058594 7.894531 36 21.949219 21.949219 C 36 7.894531 55.058594 0 74.933594 0 Z M 74.933594 0 "/></clipPath></defs><g id="0dc95f2fc0"><g clip-rule="nonzero" clip-path="url(#1bffeeb1f3)"><g clip-rule="nonzero" clip-path="url(#d85f5d3fac)"><path style=" stroke:none;fill-rule:nonzero;fill:#ffffff;fill-opacity:1;" d="M 0 0 L 562 0 L 562 562 L 0 562 Z M 0 0 "/></g></g><path style=" stroke:none;fill-rule:evenodd;fill:#000000;fill-opacity:1;" d="M 150.226562 109.234375 C 115.414062 113.183594 84.449219 141.609375 73.703125 179.476562 C 68.660156 197.25 68.039062 222.828125 72.226562 240.265625 C 80.257812 273.710938 100.464844 296.515625 130.097656 305.585938 C 137.726562 307.917969 144.136719 308.921875 157.632812 309.898438 C 163.613281 310.328125 165.1875 311.054688 171.933594 316.503906 C 176.105469 319.875 183.003906 324.320312 187.265625 326.386719 C 204.15625 334.578125 212.296875 343.230469 229.039062 370.78125 C 240.128906 389.035156 265.117188 420.789062 273.445312 427.214844 C 276.941406 429.910156 284 434.054688 289.132812 436.429688 C 304.453125 443.507812 350.300781 459.578125 355.171875 459.578125 C 362.066406 459.578125 379.574219 448.253906 391.917969 435.8125 C 403.671875 423.960938 412.90625 406.519531 435.816406 352.902344 C 442.820312 336.511719 449.3125 321.625 450.242188 319.816406 L 451.9375 316.535156 L 456.902344 319.066406 C 459.628906 320.457031 467.625 327.214844 474.667969 334.085938 L 487.472656 346.574219 L 488.691406 341.988281 C 492.085938 329.1875 492.714844 324.207031 492.820312 309.394531 C 492.941406 291.640625 491.628906 284.234375 486.371094 273.042969 C 481.675781 263.042969 476.023438 256.921875 463.664062 248.460938 C 452.074219 240.519531 448.296875 236.609375 448.296875 232.5625 C 448.296875 229.453125 452.28125 225.554688 457.234375 223.824219 C 459.785156 222.933594 460.125 222.554688 458.425781 222.507812 C 453.683594 222.378906 445.097656 225.019531 431.449219 230.796875 C 419.503906 235.855469 416.421875 236.691406 409.675781 236.691406 C 402.34375 236.691406 401.503906 236.40625 397.113281 232.441406 C 392.34375 228.128906 386.316406 217.730469 386.316406 213.808594 C 386.316406 209.675781 383.128906 211.722656 377.597656 219.40625 C 374.535156 223.667969 371.457031 227.152344 370.761719 227.152344 C 370.0625 227.152344 368.339844 224.605469 366.925781 221.492188 C 363.175781 213.234375 363.246094 197.328125 367.082031 186.214844 C 371.308594 173.972656 382.820312 159.863281 397.226562 149.269531 C 402.375 145.484375 419.816406 137.492188 420.796875 138.472656 C 421.132812 138.804688 419.542969 140.507812 417.269531 142.25 C 409.136719 148.484375 398.988281 160.066406 394.046875 168.75 C 393.488281 169.734375 396.839844 166.96875 401.496094 162.605469 C 415.914062 149.09375 431.679688 141.972656 455.226562 138.34375 C 461.574219 137.367188 468.644531 136.25 470.9375 135.859375 L 475.109375 135.15625 L 471.652344 133.347656 C 457 125.667969 434.6875 122.699219 419.09375 126.351562 C 392.550781 132.570312 369.078125 152.410156 358.808594 177.316406 C 354.117188 188.691406 352.507812 199.054688 353.210938 213.367188 L 353.796875 225.367188 L 347.277344 230.59375 C 330.09375 244.382812 323.003906 267.53125 326.792969 297.5 C 329.308594 317.417969 328.519531 321.828125 322.972656 318.820312 C 321.289062 317.902344 313.167969 316.984375 302.667969 316.515625 C 289.164062 315.917969 284.464844 315.277344 282.074219 313.710938 L 278.976562 311.679688 L 284.671875 305.671875 C 311.058594 277.84375 322.230469 237.054688 313.726562 199.59375 C 306.050781 165.773438 282.414062 137.304688 253.40625 126.933594 C 243.78125 123.492188 224.152344 122.539062 213.632812 125.003906 L 206.03125 126.785156 L 200.878906 122.851562 C 187.433594 112.589844 167.621094 107.261719 150.226562 109.234375 M 121.980469 128.789062 C 109.410156 138.105469 106.332031 140.832031 99.421875 148.785156 C 83.140625 167.53125 74.175781 198.757812 77.355469 225.683594 C 78.695312 237.03125 82.371094 250.011719 86.5625 258.214844 C 90.515625 265.941406 99.4375 279.003906 99.878906 277.710938 C 100.125 277.003906 97.988281 270.566406 95.132812 263.410156 C 85.542969 239.371094 83.03125 225.597656 84.898438 207.308594 C 87.082031 185.984375 95.640625 163.933594 107.574219 148.894531 C 110.78125 144.859375 117.683594 137.523438 122.921875 132.597656 C 128.15625 127.675781 132.4375 123.335938 132.4375 122.953125 C 132.4375 121.433594 130.273438 122.644531 121.980469 128.789062 M 187.863281 150.59375 C 162.429688 168.550781 150.128906 187.707031 144.914062 217.476562 C 140.429688 243.089844 144.96875 267.585938 158.105469 288.664062 C 163.28125 296.96875 167.003906 301.296875 167.003906 299.011719 C 167.003906 298.382812 164.84375 292.5625 162.207031 286.078125 C 149.464844 254.765625 147.917969 237.621094 155.226562 208.789062 C 160.214844 189.105469 168.011719 176.3125 186.964844 156.691406 C 193.859375 149.558594 199.023438 143.753906 198.449219 143.792969 C 197.871094 143.832031 193.105469 146.890625 187.863281 150.59375 M 225.375 170.296875 C 190.15625 178.273438 171.582031 227.941406 189.84375 265.296875 C 194.808594 275.449219 207.230469 288.011719 216.660156 292.421875 C 222.78125 295.285156 225.058594 295.675781 235.5625 295.683594 C 246.597656 295.6875 248.097656 295.398438 255.25 291.878906 C 281.5 278.953125 294.472656 247.558594 287.148438 214.671875 C 282.875 195.480469 268.035156 177.539062 251.605469 171.710938 C 244.265625 169.105469 233.253906 168.511719 225.375 170.296875 M 237.125 217.273438 C 225.914062 224.226562 225.898438 247.136719 237.097656 253.675781 C 242.636719 256.90625 248.058594 256.363281 252.867188 252.097656 C 255.1875 250.039062 255.703125 249.257812 254.046875 250.3125 C 249.515625 253.191406 242.886719 252.695312 238.6875 249.164062 C 231.128906 242.800781 230.746094 229.917969 237.910156 222.757812 C 242.375 218.292969 247.390625 217.601562 253.417969 220.613281 L 256.992188 222.40625 L 253.101562 218.820312 C 248.585938 214.664062 242.3125 214.054688 237.125 217.273438 M 373.539062 236.652344 C 361.445312 239.527344 348.339844 249.621094 342.988281 260.179688 C 337.074219 271.847656 336.484375 289.929688 341.6875 299.992188 C 344.527344 305.488281 350.582031 311.742188 355.464844 314.234375 C 368.425781 320.84375 386.460938 311.996094 405.28125 289.796875 C 409.488281 284.835938 413.167969 281.023438 413.460938 281.316406 C 414.757812 282.609375 408.628906 298.816406 404.332031 305.460938 C 396.316406 317.867188 380.742188 327.535156 368.4375 327.75 C 360.925781 327.878906 355.242188 325.503906 349.410156 319.800781 L 345.535156 316.015625 L 342.089844 319.875 C 340.191406 322 338.652344 324.398438 338.671875 325.207031 C 338.691406 326.015625 341.886719 328.804688 345.777344 331.40625 C 349.664062 334.007812 354.808594 338.707031 357.203125 341.847656 C 361.316406 347.242188 367.15625 359.4375 367.214844 362.765625 C 367.230469 363.601562 363.988281 360.503906 360.011719 355.882812 C 356.035156 351.261719 349.195312 345.066406 344.816406 342.113281 C 333.492188 334.488281 324.84375 332.140625 303.277344 330.839844 C 289.011719 329.980469 283.1875 329.085938 275.683594 326.605469 L 266.175781 323.460938 L 256.222656 328.308594 C 246.496094 333.046875 232.113281 336.808594 223.742188 336.808594 C 221.457031 336.808594 219.289062 337.296875 218.917969 337.894531 C 218.007812 339.371094 232.082031 352.097656 241.859375 358.636719 C 251.53125 365.101562 254.828125 366.789062 268.128906 372.078125 L 278.449219 376.183594 L 271.890625 375.601562 C 268.285156 375.285156 261.714844 374.695312 257.292969 374.296875 C 252.867188 373.894531 249.246094 374.019531 249.246094 374.566406 C 249.246094 375.824219 266.691406 395.300781 273.890625 402.085938 C 294.617188 421.617188 309.941406 428.199219 332.078125 427.078125 C 354.183594 425.957031 366.871094 419.421875 371.105469 406.984375 L 372.882812 401.769531 L 374.242188 406.695312 C 376.234375 413.898438 378.226562 415.113281 382.757812 411.886719 C 387.632812 408.417969 397.011719 397.046875 401.558594 389.09375 C 407.023438 379.539062 411.140625 365.566406 412.746094 351.132812 L 414.179688 338.25 L 416.492188 341.191406 C 417.761719 342.808594 419.203125 343.691406 419.6875 343.152344 C 421.011719 341.691406 428.902344 315.804688 431.105469 305.699219 C 433.820312 293.257812 433.792969 275.929688 431.050781 267.679688 C 428.292969 259.386719 422.980469 249.878906 419.046875 246.183594 C 415.191406 242.558594 412.492188 243.953125 410.636719 250.523438 C 409.414062 254.859375 409.265625 254.976562 408.414062 252.308594 C 407.910156 250.738281 405.347656 247.117188 402.714844 244.265625 C 395.804688 236.765625 384.960938 233.9375 373.539062 236.652344 M 453.726562 267.945312 C 451.390625 271.277344 451.347656 278.050781 453.625 283.5 C 457.332031 292.375 480.59375 317.738281 485.023438 317.738281 C 486.570312 317.738281 485.765625 307.253906 483.300781 295.386719 C 480.921875 283.933594 474.195312 270.558594 469.320312 267.585938 C 463.996094 264.339844 456.125 264.519531 453.726562 267.945312 "/></g></svg>