<svg width="102" height="102" viewBox="0 0 102 102" fill="none" xmlns="http://www.w3.org/2000/svg">
<path d="M89.2499 16.9999H76.075C74.0416 7.11271 65.3441 0.01275 55.2499 0H46.7498C36.6556 0.01275 27.9581 7.11271 25.9249 16.9999H12.7499C10.4027 16.9999 8.5 18.9027 8.5 21.2499C8.5 23.5971 10.4027 25.5 12.7499 25.5H16.9999V80.7499C17.014 92.4801 26.5197 101.986 38.2499 102H63.7499C75.4801 101.986 84.9859 92.4801 85 80.7499V25.5H89.2499C91.5971 25.5 93.4999 23.5973 93.4999 21.2501C93.4999 18.9029 91.5971 16.9999 89.2499 16.9999ZM46.75 72.2501C46.75 74.5973 44.8473 76.5 42.5001 76.5C40.1527 76.5 38.2499 74.5973 38.2499 72.2501V46.7501C38.2499 44.4029 40.1527 42.5001 42.4999 42.5001C44.8471 42.5001 46.7498 44.4029 46.7498 46.7501V72.2501H46.75ZM63.7499 72.2501C63.7499 74.5973 61.8472 76.5 59.5 76.5C57.1528 76.5 55.2501 74.5973 55.2501 72.2501V46.7501C55.2501 44.4029 57.1528 42.5001 59.5 42.5001C61.8472 42.5001 63.7499 44.4029 63.7499 46.7501V72.2501ZM34.7268 16.9999C36.5345 11.9097 41.3484 8.50644 46.75 8.49987H55.2501C60.6517 8.50644 65.4656 11.9097 67.2733 16.9999H34.7268Z" fill="#EB2121"/>
</svg>
